<svg width="20" height="20" viewBox="0 0 20 20" fill="none" xmlns="http://www.w3.org/2000/svg">
<path d="M18.0817 9.00024V7.00024H16.0817V5.00024C16.0801 4.4703 15.8689 3.96251 15.4941 3.58778C15.1194 3.21305 14.6116 3.00183 14.0817 3.00024H12.0817V1.00024H10.0817V3.00024H8.08167V1.00024H6.08167V3.00024H4.08167C3.55172 3.00183 3.04393 3.21305 2.6692 3.58778C2.29447 3.96251 2.08325 4.4703 2.08167 5.00024V7.00024H0.081665V9.00024H2.08167V11.0002H0.081665V13.0002H2.08167V15.0002C2.08325 15.5302 2.29447 16.038 2.6692 16.4127C3.04393 16.7874 3.55172 16.9987 4.08167 17.0002H6.08167V19.0002H8.08167V17.0002H10.0817V19.0002H12.0817V17.0002H14.0817C14.6116 16.9987 15.1194 16.7874 15.4941 16.4127C15.8689 16.038 16.0801 15.5302 16.0817 15.0002V13.0002H18.0817V11.0002H16.0817V9.00024H18.0817ZM14.0817 15.0002H4.08167V5.00024H14.0817V15.0002Z" fill="black"/>
<path d="M8.45916 6.50024H7.33833L5.66333 13.1669H6.51916L6.90583 11.6044H8.83583L9.2125 13.1669H10.0975L8.45916 6.50024ZM7.01833 10.9369L7.86666 7.29191H7.905L8.72416 10.9369H7.01833ZM10.8617 6.50024H11.695V13.1669H10.8617V6.50024Z" fill="black"/>
</svg>
