<svg width="18" height="18" viewBox="0 0 18 18" fill="none" xmlns="http://www.w3.org/2000/svg">
<path d="M17 9C17 4.5816 13.4184 1 9 1C4.5816 1 1 4.5816 1 9C1 13.4184 4.5816 17 9 17" stroke="black" stroke-width="1.5" stroke-linecap="round" stroke-linejoin="round"/>
<path d="M15.4 3.9592C14.652 4.0128 13.6944 4.3032 13.0304 5.1624C11.8304 6.7144 10.6312 6.8448 9.8312 6.3272C8.6312 5.5512 9.64 4.2928 8.232 3.6096C7.3144 3.164 7.1864 1.952 7.6976 1M1 8.2C1.6104 8.7296 2.464 9.2144 3.4712 9.2144C5.5512 9.2144 5.9672 9.612 5.9672 11.2016C5.9672 12.7912 5.9672 12.7912 6.3832 13.9832C6.6536 14.7592 6.748 15.5336 6.2088 16.2M15.3192 15.3432L17 17M16.2864 13.0368C16.286 13.4623 16.2018 13.8835 16.0385 14.2765C15.8753 14.6694 15.6363 15.0263 15.3352 15.3269C15.034 15.6275 14.6766 15.8658 14.2833 16.0282C13.8901 16.1906 13.4687 16.274 13.0432 16.2736C12.6177 16.274 12.1963 16.1906 11.8031 16.0282C11.4098 15.8658 11.0524 15.6275 10.7512 15.3269C10.4501 15.0263 10.2111 14.6694 10.0479 14.2765C9.88464 13.8835 9.80042 13.4623 9.8 13.0368C9.80042 12.6113 9.88464 12.1901 10.0479 11.7971C10.2111 11.4042 10.4501 11.0473 10.7512 10.7467C11.0524 10.4461 11.4098 10.2078 11.8031 10.0454C12.1963 9.88297 12.6177 9.79958 13.0432 9.8C13.4687 9.79958 13.8901 9.88297 14.2833 10.0454C14.6766 10.2078 15.034 10.4461 15.3352 10.7467C15.6363 11.0473 15.8753 11.4042 16.0385 11.7971C16.2018 12.1901 16.286 12.6113 16.2864 13.0368Z" stroke="black" stroke-width="1.5" stroke-linecap="round" stroke-linejoin="round"/>
</svg>
