<svg width="13" height="22" viewBox="0 0 13 22" fill="none" xmlns="http://www.w3.org/2000/svg">
<path d="M3.56902 5H8.4175M3.56902 5V7.5H8.4175V5M3.56902 5V3.5C3.56902 2 5.02356 1 6.47811 1H11.8114C11.8114 1 8.4175 2 8.4175 4V5M1.14478 8.5C1.14478 8.23478 1.24694 7.98043 1.42879 7.79289C1.61065 7.60536 1.85729 7.5 2.11447 7.5H9.87205C10.1292 7.5 10.3759 7.60536 10.5577 7.79289C10.7396 7.98043 10.8417 8.23478 10.8417 8.5V18C10.8417 18 10.8417 21 7.93265 21H4.05387C1.14478 21 1.14478 18 1.14478 18V8.5Z" stroke="black" stroke-linecap="round" stroke-linejoin="round"/>
</svg>
