<svg width="16" height="16" viewBox="0 0 16 16" fill="none" xmlns="http://www.w3.org/2000/svg">
<path d="M12.4451 11.2005H14.223V1.60008H5.33363V3.20016H12.4451V11.2005ZM12.4451 12.8006V15.1999C12.4451 15.6424 12.0451 16 11.55 16H0.895161C0.777901 16.0007 0.661638 15.9806 0.553068 15.9407C0.444497 15.9008 0.345766 15.842 0.26256 15.7676C0.179354 15.6933 0.113319 15.6048 0.0682566 15.5074C0.0231946 15.41 -2.8727e-06 15.3055 2.66826e-10 15.1999L0.00177775 4.001C0.00177775 3.55857 0.4018 3.20016 0.896939 3.20016H3.55486V0.800039C3.55486 0.587855 3.64852 0.384362 3.81523 0.234326C3.98194 0.0842895 4.20804 0 4.4438 0H15.1111C15.3468 0 15.5729 0.0842895 15.7396 0.234326C15.9063 0.384362 16 0.587855 16 0.800039V12.0006C16 12.2128 15.9063 12.4163 15.7396 12.5663C15.5729 12.7163 15.3468 12.8006 15.1111 12.8006H12.4451ZM3.55575 11.2005V12.8006H5.33363V13.6007H7.11151V12.8006H7.55598C8.14538 12.8006 8.71064 12.5899 9.12741 12.2148C9.54418 11.8397 9.77832 11.331 9.77832 10.8005C9.77832 10.2701 9.54418 9.76133 9.12741 9.38624C8.71064 9.01115 8.14538 8.80043 7.55598 8.80043H4.88916C4.77128 8.80043 4.65823 8.75828 4.57487 8.68327C4.49152 8.60825 4.44469 8.5065 4.44469 8.40041C4.44469 8.29432 4.49152 8.19257 4.57487 8.11755C4.65823 8.04253 4.77128 8.00039 4.88916 8.00039H8.88938V6.40031H7.11151V5.60027H5.33363V6.40031H4.88916C4.29976 6.40031 3.7345 6.61104 3.31772 6.98613C2.90095 7.36122 2.66681 7.86995 2.66681 8.40041C2.66681 8.93087 2.90095 9.4396 3.31772 9.81469C3.7345 10.1898 4.29976 10.4005 4.88916 10.4005H7.55598C7.67386 10.4005 7.78691 10.4427 7.87026 10.5177C7.95362 10.5927 8.00044 10.6944 8.00044 10.8005C8.00044 10.9066 7.95362 11.0084 7.87026 11.0834C7.78691 11.1584 7.67386 11.2005 7.55598 11.2005H3.55575Z" fill="black"/>
</svg>
