<svg width="32" height="25" viewBox="0 0 32 25" fill="none" xmlns="http://www.w3.org/2000/svg">
<path d="M0.668248 9.61434C1.09626 9.18761 1.67668 8.94788 2.28189 8.94788C2.88709 8.94788 3.46752 9.18761 3.89552 9.61434L11.966 17.6632L28.1024 1.56779C28.3143 1.35631 28.5659 1.18852 28.8428 1.074C29.1197 0.95949 29.4166 0.900496 29.7164 0.900391C30.0161 0.900285 30.313 0.95907 30.59 1.07339C30.867 1.18771 31.1187 1.35532 31.3308 1.56666C31.5429 1.77799 31.7111 2.02892 31.8259 2.3051C31.9407 2.58128 31.9999 2.87732 32 3.1763C32.0001 3.47528 31.9412 3.77135 31.8265 4.04762C31.7119 4.32388 31.5438 4.57492 31.3319 4.78641L11.966 24.1004L0.668248 12.833C0.240369 12.4061 0 11.8272 0 11.2236C0 10.6201 0.240369 10.0412 0.668248 9.61434Z" fill="black"/>
</svg>
