<svg width="20" height="20" viewBox="0 0 20 20" fill="none" xmlns="http://www.w3.org/2000/svg">
<path d="M19.6185 8.7001L10.9228 0.367615C10.8016 0.251094 10.6577 0.15864 10.4991 0.0955566C10.3406 0.032473 10.1706 0 9.99891 0C9.82724 0 9.65726 0.032473 9.49872 0.0955566C9.34017 0.15864 9.19618 0.251094 9.075 0.367615L0.379352 8.7001C0.135598 8.93504 -0.000845199 9.2531 3.93975e-06 9.58439V19.5834C3.93975e-06 19.6939 0.0458113 19.7998 0.127349 19.878C0.208886 19.9561 0.319475 20 0.434786 20H7.39131C7.50662 20 7.61721 19.9561 7.69874 19.878C7.78028 19.7998 7.82609 19.6939 7.82609 19.5834V13.334H12.1739V19.5834C12.1739 19.6939 12.2197 19.7998 12.3013 19.878C12.3828 19.9561 12.4934 20 12.6087 20H19.5652C19.6805 20 19.7911 19.9561 19.8727 19.878C19.9542 19.7998 20 19.6939 20 19.5834V9.58439C20.0001 9.4202 19.9665 9.2576 19.901 9.10587C19.8356 8.95415 19.7396 8.81626 19.6185 8.7001ZM19.1304 19.1668H13.0435V12.9174C13.0435 12.8069 12.9977 12.7009 12.9161 12.6228C12.8346 12.5447 12.724 12.5008 12.6087 12.5008H7.39131C7.276 12.5008 7.16541 12.5447 7.08387 12.6228C7.00233 12.7009 6.95652 12.8069 6.95652 12.9174V19.1668H0.869569V9.58439C0.869524 9.52966 0.880732 9.47546 0.902553 9.42488C0.924374 9.37431 0.95638 9.32835 0.996743 9.28963L9.69239 0.957138C9.73277 0.918402 9.78072 0.887673 9.83351 0.866706C9.88629 0.84574 9.94286 0.834948 10 0.834948C10.0571 0.834948 10.1137 0.84574 10.1665 0.866706C10.2193 0.887673 10.2672 0.918402 10.3076 0.957138L19.0033 9.28963C19.0436 9.32835 19.0756 9.37431 19.0974 9.42488C19.1193 9.47546 19.1305 9.52966 19.1304 9.58439V19.1668Z" fill="black"/>
</svg>
