<svg width="18" height="18" viewBox="0 0 18 18" fill="none" xmlns="http://www.w3.org/2000/svg">
<path d="M10.6918 10.195C10.2168 10.7365 9.63835 11.1796 8.98733 11.5008V13.3468C8.98733 13.51 8.9225 13.6665 8.8071 13.7819C8.6917 13.8973 8.53519 13.9621 8.372 13.9621H4.68002C4.51682 13.9621 4.36031 13.8973 4.24491 13.7819C4.12952 13.6665 4.06469 13.51 4.06469 13.3468V11.5008C2.768 10.8535 1.77669 9.72378 1.30351 8.35396C0.830321 6.98413 0.91296 5.4834 1.53369 4.17381C2.15442 2.86422 3.26377 1.85014 4.62369 1.34919C5.9836 0.848231 7.48571 0.900322 8.80765 1.49428M4.06469 17.0006H8.98733" stroke="black" stroke-linecap="round" stroke-linejoin="round"/>
<path d="M9.44763 5.22778C9.01567 5.15271 9.01567 4.53246 9.44763 4.45739C10.2125 4.32428 10.9203 3.96641 11.481 3.42943C12.0416 2.89244 12.4297 2.20066 12.5957 1.44227L12.6215 1.32167C12.715 0.894629 13.323 0.892168 13.4202 1.31798L13.4522 1.45704C13.6245 2.21199 14.0161 2.89919 14.5777 3.43234C15.1393 3.96549 15.846 4.32082 16.6088 4.4537C17.0433 4.53 17.0433 5.15271 16.6088 5.22901C15.8462 5.36212 15.1398 5.71754 14.5784 6.25068C14.0171 6.78381 13.6257 7.47089 13.4534 8.22567L13.4214 8.36474C13.3242 8.79055 12.7163 8.78808 12.6227 8.36105L12.5981 8.24167C12.432 7.48295 12.0436 6.79093 11.4824 6.25391C10.9213 5.71689 10.2129 5.36045 9.44763 5.22778Z" stroke="black" stroke-linecap="round" stroke-linejoin="round"/>
</svg>
