<svg width="25" height="16" viewBox="0 0 25 16" fill="none" xmlns="http://www.w3.org/2000/svg">
<path d="M24.4508 5.49405L22.0193 0.636805C21.9522 0.502533 21.8593 0.382791 21.7459 0.284419C21.6326 0.186047 21.5009 0.110971 21.3585 0.0634782C21.2161 0.0159856 21.0658 -0.00299323 20.9161 0.00762548C20.7663 0.0182442 20.6202 0.0582524 20.4859 0.125366L17.9887 1.3692L12.8572 0.0129822C12.7948 -0.00357498 12.7291 -0.00357498 12.6667 0.0129822L7.53516 1.3692L5.03797 0.120604C4.9037 0.0534905 4.75754 0.0134823 4.60781 0.00286355C4.45809 -0.00775517 4.30774 0.0112236 4.16535 0.0587163C4.02296 0.106209 3.89132 0.181285 3.77795 0.279657C3.66457 0.378029 3.57169 0.497771 3.5046 0.632043L1.07312 5.49405C1.00601 5.62831 0.965997 5.77448 0.955378 5.92421C0.944759 6.07393 0.963738 6.22428 1.01123 6.36667C1.05872 6.50906 1.1338 6.6407 1.23217 6.75407C1.33054 6.86744 1.45029 6.96033 1.58456 7.02742L4.18366 8.32745L9.4933 12.1199C9.53198 12.1476 9.57563 12.1677 9.62187 12.179L15.7172 13.7028C15.7807 13.7194 15.8473 13.7194 15.9107 13.7027C15.9741 13.686 16.0321 13.6532 16.0792 13.6076L21.3688 8.31792L23.9403 7.03218C24.0745 6.96509 24.1943 6.8722 24.2927 6.75883C24.391 6.64546 24.4661 6.51382 24.5136 6.37143C24.5611 6.22904 24.5801 6.07869 24.5695 5.92897C24.5588 5.77924 24.5188 5.63308 24.4517 5.49881L24.4508 5.49405ZM19.5935 9.01318L16.0506 6.17502C15.9772 6.11617 15.8847 6.08653 15.7908 6.0918C15.6969 6.09708 15.6083 6.1369 15.542 6.20359C13.6858 8.07411 11.6048 7.83315 10.2762 6.98456C10.2273 6.95319 10.186 6.91122 10.1555 6.86176C10.125 6.81231 10.1061 6.75662 10.1 6.69884C10.0935 6.64321 10.0996 6.58683 10.1179 6.5339C10.1362 6.48097 10.1662 6.43285 10.2057 6.39312L14.4401 2.28541H17.8601L20.6793 7.92458L19.5935 9.01318ZM1.73409 6.12549C1.70363 6.03115 1.71114 5.92866 1.75504 5.83977L4.19033 0.973003C4.22158 0.910108 4.2696 0.857075 4.3291 0.819763C4.3886 0.782451 4.45725 0.762311 4.52748 0.76157C4.58639 0.761928 4.64442 0.775947 4.69701 0.802523L6.98277 1.9454L4.21033 7.48933L1.92457 6.34645C1.87986 6.32394 1.84002 6.29284 1.80734 6.25493C1.77465 6.21701 1.74976 6.17303 1.73409 6.12549ZM15.6925 12.9114L9.87712 11.457L4.86749 7.87886L7.75707 2.09493L12.7619 0.774903L15.5925 1.52349H14.2858C14.1866 1.5234 14.0912 1.56201 14.0201 1.63111L9.66759 5.85311C9.54646 5.97424 9.45411 6.12105 9.39737 6.28269C9.34063 6.44432 9.32095 6.61665 9.33979 6.78691C9.35862 6.95718 9.4155 7.12103 9.5062 7.26635C9.5969 7.41168 9.71911 7.53475 9.86378 7.62648C11.7572 8.83698 14.0667 8.57888 15.8315 6.97789L19.0478 9.55509L15.6925 12.9114ZM23.7879 6.12549C23.7722 6.17303 23.7473 6.21701 23.7146 6.25493C23.682 6.29284 23.6421 6.32394 23.5974 6.34645L21.3116 7.48933L18.5411 1.9454L20.8269 0.802523C20.9168 0.758737 21.0203 0.752073 21.1151 0.783969C21.2099 0.815865 21.2884 0.883763 21.3336 0.973003L23.765 5.83501C23.8115 5.92473 23.8204 6.02921 23.7898 6.12549H23.7879ZM12.7562 15.7143C12.7351 15.7962 12.6873 15.8687 12.6204 15.9204C12.5535 15.9721 12.4713 16.0001 12.3867 16C12.3546 16.0002 12.3226 15.9964 12.2915 15.9886L8.32185 14.9952C8.27534 14.9838 8.2314 14.9638 8.19232 14.9362L5.68369 13.1428C5.60148 13.0841 5.54595 12.9951 5.52934 12.8954C5.51273 12.7957 5.53639 12.6936 5.59512 12.6113C5.65385 12.5291 5.74283 12.4736 5.8425 12.457C5.94216 12.4404 6.04434 12.464 6.12656 12.5228L8.57614 14.2723L12.481 15.2485C12.5297 15.2609 12.5756 15.2827 12.6159 15.3128C12.6561 15.343 12.69 15.3808 12.7156 15.4241C12.7412 15.4674 12.758 15.5153 12.7649 15.5651C12.7719 15.6149 12.769 15.6656 12.7562 15.7143Z" fill="black"/>
</svg>
